# xmcd
#
# Track frame offsets:
#	150
#	27305
#	45270
#	60157
#	93717
#	110405
#	129617
#	146205
#	168330
#	181727
#	200652
#	217677
#
# Disc length: 3880 seconds
#
# Revision: 1
# Processed by: cddbd v1.5.2PL0 Copyright (c) Steve Scherf et al.
# Submitted via: audiograbber 1.81.03
#
DISCID=a10f260c
DTITLE=Manoucheri - The`Blind Leading The Blind
DYEAR=2001
DGENRE=Blues
TTITLE0=Quit While I'm Behind
TTITLE1=Midnight Confessions
TTITLE2=The`Last Thing
TTITLE3=Dirge In A Minor
TTITLE4=Without You
TTITLE5=The`Blind Leading The Blind
TTITLE6=Darker Side Of Lonely
TTITLE7=Savior
TTITLE8=Don't You Lie To Me
TTITLE9=Like A Country Song
TTITLE10=Don't Be Hard On Me
TTITLE11=Someday
EXTD=
EXTT0=
EXTT1=
EXTT2=
EXTT3=
EXTT4=
EXTT5=
EXTT6=
EXTT7=
EXTT8=
EXTT9=
EXTT10=
EXTT11=
PLAYORDER=
